<svg width="18" height="20" viewBox="0 0 18 20" fill="none" xmlns="http://www.w3.org/2000/svg">
<path d="M5.16924 6.80764V5.53072C5.16924 4.51474 5.57284 3.54037 6.29125 2.82196C7.00965 2.10355 7.98403 1.69995 9.00001 1.69995C10.016 1.69995 10.9904 2.10355 11.7088 2.82196C12.4272 3.54037 12.8308 4.51474 12.8308 5.53072V6.80764M2.36001 6.80764H15.64C15.64 6.80764 16.6615 6.80764 16.6615 7.95687C16.6615 9.10611 16.6615 16.1152 16.6615 16.1152C16.6615 17.3219 15.6336 18.3 14.4269 18.3H3.57309C2.36639 18.3 1.33847 17.272 1.33847 16.0653C1.33847 16.0653 1.33847 9.10611 1.33847 7.95687C1.33847 6.80764 2.36001 6.80764 2.36001 6.80764Z" stroke="#040404" stroke-width="1.5" stroke-linecap="round" stroke-linejoin="round"/>
</svg>
