<svg width="17" height="19" viewBox="0 0 17 19" fill="none" xmlns="http://www.w3.org/2000/svg">
<path d="M15.6667 17.3V14.55C15.6667 12.2584 14.75 10.8834 12.9167 10.8834H3.75C1.91667 10.8834 1 12.2584 1 14.55V17.3M12 4.46672C12 5.43918 11.6137 6.37181 10.9261 7.05944C10.2384 7.74707 9.30579 8.13338 8.33333 8.13338C7.36087 8.13338 6.42824 7.74707 5.74061 7.05944C5.05297 6.37181 4.66667 5.43918 4.66667 4.46672C4.66667 3.49426 5.05297 2.56162 5.74061 1.87399C6.42824 1.18636 7.36087 0.800049 8.33333 0.800049C9.30579 0.800049 10.2384 1.18636 10.9261 1.87399C11.6137 2.56162 12 3.49426 12 4.46672Z" stroke="#040404" stroke-width="1.5" stroke-miterlimit="10" stroke-linecap="round" stroke-linejoin="round"/>
</svg>
